<svg width="25" height="24" viewBox="0 0 25 24" fill="none" xmlns="http://www.w3.org/2000/svg">
<g clip-path="url(#clip0_2_10865)">
<path d="M22.2081 4.01001C21.2081 4.50001 20.2281 4.69901 19.2081 5.00001C18.0871 3.73501 16.4251 3.66501 14.8281 4.26301C13.2311 4.86101 12.1851 6.32301 12.2081 8.00001V9.00001C8.96307 9.08301 6.07307 7.60501 4.20807 5.00001C4.20807 5.00001 0.0260687 12.433 8.20807 16C6.33607 17.247 4.46907 18.088 2.20807 18C5.51607 19.803 9.12107 20.423 12.2421 19.517C15.8221 18.477 18.7641 15.794 19.8931 11.775C20.2299 10.5527 20.3971 9.28987 20.3901 8.02201C20.3881 7.77301 21.9001 5.25001 22.2081 4.00901V4.01001Z" stroke="#EEF6FF" stroke-width="1.67" stroke-linecap="round" stroke-linejoin="round"/>
</g>
<defs>
<clipPath id="clip0_2_10865">
<rect width="24" height="24" fill="white" transform="translate(0.208069)"/>
</clipPath>
</defs>
</svg>
