<svg width="25" height="24" viewBox="0 0 25 24" fill="none" xmlns="http://www.w3.org/2000/svg">
<g clip-path="url(#clip0_2_10097)">
<path d="M12.2081 14C13.8649 14 15.2081 12.6569 15.2081 11C15.2081 9.34315 13.8649 8 12.2081 8C10.5512 8 9.20807 9.34315 9.20807 11C9.20807 12.6569 10.5512 14 12.2081 14Z" stroke="#EEF6FF" stroke-width="1.67" stroke-linecap="round" stroke-linejoin="round"/>
<path d="M17.8651 16.657L13.6221 20.9C13.2471 21.2746 12.7387 21.4851 12.2086 21.4851C11.6785 21.4851 11.1701 21.2746 10.7951 20.9L6.55107 16.657C5.43229 15.5382 4.67041 14.1127 4.36176 12.5609C4.05311 11.009 4.21156 9.40053 4.81708 7.93874C5.42259 6.47696 6.44797 5.22755 7.76355 4.34852C9.07914 3.46949 10.6258 3.00031 12.2081 3.00031C13.7903 3.00031 15.337 3.46949 16.6526 4.34852C17.9682 5.22755 18.9936 6.47696 19.5991 7.93874C20.2046 9.40053 20.363 11.009 20.0544 12.5609C19.7457 14.1127 18.9839 15.5382 17.8651 16.657Z" stroke="#EEF6FF" stroke-width="1.67" stroke-linecap="round" stroke-linejoin="round"/>
</g>
<defs>
<clipPath id="clip0_2_10097">
<rect width="24" height="24" fill="white" transform="translate(0.208069)"/>
</clipPath>
</defs>
</svg>
