<svg width="25" height="24" viewBox="0 0 25 24" fill="none" xmlns="http://www.w3.org/2000/svg">
<g clip-path="url(#clip0_2_10876)">
<path d="M9.20807 19C4.90807 20.4 4.90807 16.5 3.20807 16M15.2081 21V17.5C15.2081 16.5 15.3081 16.1 14.7081 15.5C17.5081 15.2 20.2081 14.1 20.2081 9.49995C20.2069 8.30492 19.7406 7.15726 18.9081 6.29995C19.2985 5.26192 19.2626 4.11158 18.8081 3.09995C18.8081 3.09995 17.7081 2.79995 15.3081 4.39995C13.2753 3.87054 11.1408 3.87054 9.10807 4.39995C6.70807 2.79995 5.60807 3.09995 5.60807 3.09995C5.15355 4.11158 5.1176 5.26192 5.50807 6.29995C4.67552 7.15726 4.20929 8.30492 4.20807 9.49995C4.20807 14.1 6.90807 15.2 9.70807 15.5C9.10807 16.1 9.10807 16.7 9.20807 17.5V21" stroke="#EEF6FF" stroke-width="1.67" stroke-linecap="round" stroke-linejoin="round"/>
</g>
<defs>
<clipPath id="clip0_2_10876">
<rect width="24" height="24" fill="white" transform="translate(0.208069)"/>
</clipPath>
</defs>
</svg>
