<svg width="123" height="90" viewBox="0 0 123 90" fill="none" xmlns="http://www.w3.org/2000/svg">
<circle cx="61.5" cy="25" r="25" fill="#EEF6FF"/>
<path d="M2.588 83H9.236C12.5 83 14.564 81.248 14.564 78.488C14.564 76.376 13.556 74.984 11.564 74.336C13.34 73.64 14.228 72.272 14.228 70.256C14.228 67.496 12.188 65.816 8.876 65.816H2.588V83ZM8.852 67.352C11.156 67.352 12.452 68.48 12.452 70.4C12.452 72.44 11.228 73.64 9.068 73.64H4.316V67.352H8.852ZM9.236 75.152C11.468 75.152 12.812 76.328 12.812 78.272C12.812 80.264 11.492 81.44 9.236 81.44H4.316V75.152H9.236ZM20.8077 83.288C22.7757 83.288 24.3598 82.424 25.0798 80.96L25.2958 83H26.6878V75.488C26.6878 72.416 24.7197 71.072 22.0318 71.072C19.1757 71.072 17.2557 72.584 17.2557 74.936H18.7677C18.7677 73.376 19.9677 72.464 21.9838 72.464C23.6878 72.464 25.0557 73.184 25.0557 75.464V75.848L21.2157 76.16C18.5037 76.376 16.8717 77.72 16.8717 79.856C16.8717 81.896 18.3357 83.288 20.8077 83.288ZM21.1917 81.944C19.6077 81.944 18.5517 81.224 18.5517 79.808C18.5517 78.512 19.4397 77.552 21.6237 77.36L25.0557 77.096V77.72C25.0557 80.24 23.6398 81.944 21.1917 81.944ZM29.3448 77.216C29.3448 80.864 31.5768 83.288 34.8648 83.288C37.5048 83.288 39.5688 81.728 40.1208 79.352H38.4408C37.9848 80.84 36.5928 81.8 34.8648 81.8C32.5128 81.8 30.9768 79.952 30.9768 77.192C30.9768 74.336 32.6328 72.536 34.9848 72.536C36.5928 72.536 37.9848 73.424 38.4168 75.032H40.0728C39.6168 72.632 37.6488 71.072 34.9608 71.072C31.5768 71.072 29.3448 73.568 29.3448 77.216ZM44.5076 83V79.52L46.7636 77.192L50.4596 83H52.3796L47.8916 76.016L52.3556 71.384H50.2676L44.5076 77.384V65.504H42.8516V83H44.5076ZM63.9779 83V72.776H66.3059V71.384H63.9779V67.712H62.3459V71.384H60.0179V72.776H62.3459V83H63.9779ZM67.6792 77.192C67.6792 80.72 70.1752 83.288 73.5832 83.288C76.9912 83.288 79.4872 80.72 79.4872 77.192C79.4872 73.64 76.9912 71.072 73.5832 71.072C70.1752 71.072 67.6792 73.64 67.6792 77.192ZM69.3592 77.168C69.3592 74.48 71.0872 72.56 73.5832 72.56C76.0552 72.56 77.8072 74.48 77.8072 77.168C77.8072 79.904 76.0552 81.8 73.5832 81.8C71.0872 81.8 69.3592 79.904 69.3592 77.168ZM91.7561 83V72.776H94.0841V71.384H91.7561V67.712H90.1241V71.384H87.7961V72.776H90.1241V83H91.7561ZM95.4573 77.192C95.4573 80.72 97.9533 83.288 101.361 83.288C104.769 83.288 107.265 80.72 107.265 77.192C107.265 73.64 104.769 71.072 101.361 71.072C97.9533 71.072 95.4573 73.64 95.4573 77.192ZM97.1373 77.168C97.1373 74.48 98.8653 72.56 101.361 72.56C103.833 72.56 105.585 74.48 105.585 77.168C105.585 79.904 103.833 81.8 101.361 81.8C98.8653 81.8 97.1373 79.904 97.1373 77.168ZM110.064 88.064H111.72V80.768C112.536 82.448 114.096 83.288 116.064 83.288C119.496 83.288 121.44 80.648 121.44 77.144C121.44 73.64 119.424 71.072 116.064 71.072C114.12 71.072 112.488 71.936 111.672 73.736L111.504 71.384H110.064V88.064ZM111.744 77.192C111.744 74.504 113.232 72.584 115.776 72.584C118.296 72.584 119.76 74.504 119.76 77.192C119.76 79.856 118.296 81.8 115.776 81.8C113.232 81.8 111.744 79.856 111.744 77.192Z" fill="#EEF6FF"/>
<g clip-path="url(#clip0_2_10073)">
<path d="M61.5 18V32" stroke="#00132D" stroke-width="1.67" stroke-linecap="round" stroke-linejoin="round"/>
<path d="M65.5 22L61.5 18" stroke="#00132D" stroke-width="1.67" stroke-linecap="round" stroke-linejoin="round"/>
<path d="M57.5 22L61.5 18" stroke="#00132D" stroke-width="1.67" stroke-linecap="round" stroke-linejoin="round"/>
</g>
<defs>
<clipPath id="clip0_2_10073">
<rect width="24" height="24" fill="white" transform="translate(49.5 13)"/>
</clipPath>
</defs>
</svg>
