<svg width="300" height="50" viewBox="0 0 300 50" fill="none" xmlns="http://www.w3.org/2000/svg">
<rect x="0.708069" width="50" height="50" rx="25" fill="#F79934"/>
<path d="M75.7441 28.304H80.4961C95.2921 28.304 95.2921 9.836 80.4961 9.836H68.2201C68.0761 9.836 67.9681 9.908 67.8961 10.016C67.8241 10.124 67.8241 10.232 67.8601 10.376L68.8681 12.896V31.976L67.8601 34.496C67.8241 34.604 67.8241 34.748 67.8961 34.856C67.9681 34.964 68.0761 35 68.2201 35H76.4281C76.5361 35 76.6441 34.964 76.7161 34.856C76.7881 34.748 76.8241 34.604 76.7881 34.496L75.7441 31.976V28.304ZM75.7441 14.048H78.8041C86.4361 14.048 86.4361 24.128 78.8041 24.128H75.7441V14.048ZM104.287 35.432C110.083 35.432 114.763 32.084 114.763 26C114.763 19.916 110.047 16.604 104.287 16.604C98.5627 16.604 93.9187 19.952 93.9187 26C93.9187 32.084 98.5267 35.432 104.287 35.432ZM105.547 20.492C106.663 21.788 107.419 23.552 107.815 25.208C108.175 26.864 108.319 28.772 107.887 30.428C107.635 31.4 107.059 32.66 105.943 32.912C104.827 33.164 103.783 32.336 103.099 31.544C101.983 30.248 101.227 28.484 100.831 26.828C100.471 25.208 100.327 23.264 100.759 21.608C101.011 20.636 101.587 19.376 102.703 19.124C103.819 18.872 104.863 19.736 105.547 20.492ZM117.346 34.532C117.274 34.64 117.31 34.748 117.382 34.856C117.454 34.964 117.562 35 117.67 35H125.878C126.022 35 126.13 34.964 126.202 34.856C126.274 34.748 126.274 34.64 126.238 34.532L125.194 31.976V23.696C125.194 23.588 125.23 23.48 125.23 23.372C125.482 22.436 126.67 21.896 127.534 21.716C128.83 21.5 130.162 21.86 131.062 22.832C131.17 22.94 131.35 22.976 131.494 22.904C131.602 22.868 131.71 22.724 131.71 22.58V17.108C131.71 16.964 131.602 16.82 131.458 16.784C130.342 16.424 129.154 16.568 128.074 16.964C127.102 17.324 126.022 17.936 125.194 18.692V17.396C125.194 17.288 125.158 17.18 125.086 17.108C124.978 17.036 124.87 17 124.762 17.036L118.606 18.692C118.606 18.728 118.606 18.728 118.606 18.728L117.346 19.124C117.238 19.16 117.13 19.232 117.094 19.34C117.058 19.448 117.058 19.556 117.13 19.664L118.354 21.68V31.976L117.346 34.532ZM134.78 30.284C134.78 33.776 136.688 35.54 140.144 35.54C142.7 35.54 144.572 35.108 146.48 33.632C146.588 33.56 146.624 33.452 146.624 33.344V30.644C146.624 30.5 146.552 30.392 146.408 30.32C146.3 30.248 146.156 30.284 146.048 30.392C144.068 32.048 141.62 32.12 141.62 29.024V20.276L146.12 22.22C146.228 22.256 146.372 22.256 146.48 22.184C146.588 22.112 146.624 22.004 146.624 21.896V17.396C146.624 17.18 146.48 17.036 146.264 17.036H141.62V10.232C141.62 10.124 141.584 10.016 141.512 9.944C141.404 9.872 141.296 9.872 141.188 9.872L135.032 11.564L133.772 11.96C133.664 11.996 133.556 12.068 133.52 12.176C133.484 12.284 133.484 12.392 133.556 12.5L134.78 14.516V30.284ZM154.541 14.444C154.397 14.12 154.109 13.508 154.361 13.184C154.757 12.644 156.161 13.04 156.629 13.184C158.285 13.76 159.977 14.912 161.273 16.064C161.381 16.172 161.525 16.172 161.669 16.136C161.813 16.064 161.885 15.956 161.885 15.812V11.42C161.885 11.276 161.849 11.204 161.741 11.132C160.481 10.124 158.501 9.692 156.917 9.62C153.353 9.512 150.005 11.132 150.005 15.128V31.976L148.997 34.532C148.961 34.64 148.961 34.748 149.033 34.856C149.105 34.964 149.213 35 149.357 35H157.565C157.673 35 157.781 34.964 157.853 34.856C157.925 34.748 157.925 34.64 157.889 34.532L156.881 31.976V20.276L161.381 22.22C161.489 22.256 161.597 22.256 161.705 22.184C161.813 22.112 161.885 22.004 161.885 21.896V17.396C161.885 17.18 161.705 17.036 161.525 17.036H156.665C155.909 16.316 155.009 15.38 154.541 14.444ZM174.103 35.432C179.899 35.432 184.579 32.084 184.579 26C184.579 19.916 179.863 16.604 174.103 16.604C168.379 16.604 163.735 19.952 163.735 26C163.735 32.084 168.343 35.432 174.103 35.432ZM175.363 20.492C176.479 21.788 177.235 23.552 177.631 25.208C177.991 26.864 178.135 28.772 177.703 30.428C177.451 31.4 176.875 32.66 175.759 32.912C174.643 33.164 173.599 32.336 172.915 31.544C171.799 30.248 171.043 28.484 170.647 26.828C170.287 25.208 170.143 23.264 170.575 21.608C170.827 20.636 171.403 19.376 172.519 19.124C173.635 18.872 174.679 19.736 175.363 20.492ZM194.519 10.232C194.519 10.124 194.483 10.016 194.411 9.944C194.303 9.872 194.195 9.872 194.087 9.872L187.931 11.564L186.671 11.96C186.563 11.996 186.455 12.068 186.419 12.176C186.383 12.284 186.383 12.392 186.455 12.5L187.679 14.516V31.976L186.671 34.532C186.599 34.64 186.635 34.748 186.707 34.856C186.779 34.964 186.887 35 186.995 35H195.203C195.347 35 195.455 34.964 195.527 34.856C195.599 34.748 195.599 34.64 195.563 34.532L194.519 31.976V10.232ZM206.515 31.976V17.396C206.515 17.288 206.479 17.18 206.407 17.108C206.299 17.036 206.191 17 206.083 17.036L199.927 18.692C199.927 18.728 199.927 18.728 199.927 18.728L198.667 19.124C198.559 19.16 198.451 19.232 198.415 19.34C198.379 19.448 198.379 19.556 198.451 19.664L199.675 21.68V31.976L198.667 34.532C198.595 34.64 198.631 34.748 198.703 34.856C198.775 34.964 198.883 35 198.991 35H207.199C207.343 35 207.451 34.964 207.523 34.856C207.595 34.748 207.595 34.64 207.559 34.532L206.515 31.976ZM199.279 12.248C199.279 14.264 200.935 15.884 202.951 15.884H202.987H203.023C205.039 15.92 206.695 14.264 206.695 12.248C206.695 10.196 205.039 8.576 203.023 8.576H202.987H202.951C200.935 8.576 199.279 10.196 199.279 12.248ZM220.779 35.432C226.575 35.432 231.255 32.084 231.255 26C231.255 19.916 226.539 16.604 220.779 16.604C215.055 16.604 210.411 19.952 210.411 26C210.411 32.084 215.019 35.432 220.779 35.432ZM222.039 20.492C223.155 21.788 223.911 23.552 224.307 25.208C224.667 26.864 224.811 28.772 224.379 30.428C224.127 31.4 223.551 32.66 222.435 32.912C221.319 33.164 220.275 32.336 219.591 31.544C218.475 30.248 217.719 28.484 217.323 26.828C216.963 25.208 216.819 23.264 217.251 21.608C217.503 20.636 218.079 19.376 219.195 19.124C220.311 18.872 221.355 19.736 222.039 20.492Z" fill="#F79934"/>
</svg>
