<svg width="164" height="28" viewBox="0 0 164 28" fill="none" xmlns="http://www.w3.org/2000/svg">
<path d="M8.24407 20.304H12.9961C27.7921 20.304 27.7921 1.836 12.9961 1.836H0.720069C0.576069 1.836 0.468069 1.908 0.396069 2.016C0.324069 2.124 0.324069 2.232 0.360069 2.376L1.36807 4.896V23.976L0.360069 26.496C0.324069 26.604 0.324069 26.748 0.396069 26.856C0.468069 26.964 0.576069 27 0.720069 27H8.92807C9.03607 27 9.14407 26.964 9.21607 26.856C9.28807 26.748 9.32407 26.604 9.28807 26.496L8.24407 23.976V20.304ZM8.24407 6.048H11.3041C18.9361 6.048 18.9361 16.128 11.3041 16.128H8.24407V6.048ZM36.7867 27.432C42.5827 27.432 47.2627 24.084 47.2627 18C47.2627 11.916 42.5467 8.604 36.7867 8.604C31.0627 8.604 26.4187 11.952 26.4187 18C26.4187 24.084 31.0267 27.432 36.7867 27.432ZM38.0467 12.492C39.1627 13.788 39.9187 15.552 40.3147 17.208C40.6747 18.864 40.8187 20.772 40.3867 22.428C40.1347 23.4 39.5587 24.66 38.4427 24.912C37.3267 25.164 36.2827 24.336 35.5987 23.544C34.4827 22.248 33.7267 20.484 33.3307 18.828C32.9707 17.208 32.8267 15.264 33.2587 13.608C33.5107 12.636 34.0867 11.376 35.2027 11.124C36.3187 10.872 37.3627 11.736 38.0467 12.492ZM49.8464 26.532C49.7744 26.64 49.8104 26.748 49.8824 26.856C49.9544 26.964 50.0624 27 50.1704 27H58.3784C58.5224 27 58.6304 26.964 58.7024 26.856C58.7744 26.748 58.7744 26.64 58.7384 26.532L57.6944 23.976V15.696C57.6944 15.588 57.7304 15.48 57.7304 15.372C57.9824 14.436 59.1704 13.896 60.0344 13.716C61.3304 13.5 62.6624 13.86 63.5624 14.832C63.6704 14.94 63.8504 14.976 63.9944 14.904C64.1024 14.868 64.2104 14.724 64.2104 14.58V9.108C64.2104 8.964 64.1024 8.82 63.9584 8.784C62.8424 8.424 61.6544 8.568 60.5744 8.964C59.6024 9.324 58.5224 9.936 57.6944 10.692V9.396C57.6944 9.288 57.6584 9.18 57.5864 9.108C57.4784 9.036 57.3704 9 57.2624 9.036L51.1064 10.692C51.1064 10.728 51.1064 10.728 51.1064 10.728L49.8464 11.124C49.7384 11.16 49.6304 11.232 49.5944 11.34C49.5584 11.448 49.5584 11.556 49.6304 11.664L50.8544 13.68V23.976L49.8464 26.532ZM67.2802 22.284C67.2802 25.776 69.1882 27.54 72.6442 27.54C75.2002 27.54 77.0722 27.108 78.9802 25.632C79.0882 25.56 79.1242 25.452 79.1242 25.344V22.644C79.1242 22.5 79.0522 22.392 78.9082 22.32C78.8002 22.248 78.6562 22.284 78.5482 22.392C76.5682 24.048 74.1202 24.12 74.1202 21.024V12.276L78.6202 14.22C78.7282 14.256 78.8722 14.256 78.9802 14.184C79.0882 14.112 79.1242 14.004 79.1242 13.896V9.396C79.1242 9.18 78.9802 9.036 78.7642 9.036H74.1202V2.232C74.1202 2.124 74.0842 2.016 74.0122 1.944C73.9042 1.872 73.7962 1.872 73.6882 1.872L67.5322 3.564L66.2722 3.96C66.1642 3.996 66.0562 4.068 66.0202 4.176C65.9842 4.284 65.9842 4.392 66.0562 4.5L67.2802 6.516V22.284ZM87.0408 6.444C86.8968 6.12 86.6088 5.508 86.8608 5.184C87.2568 4.644 88.6608 5.04 89.1288 5.184C90.7848 5.76 92.4768 6.912 93.7728 8.064C93.8808 8.172 94.0248 8.172 94.1688 8.136C94.3128 8.064 94.3848 7.956 94.3848 7.812V3.42C94.3848 3.276 94.3488 3.204 94.2408 3.132C92.9808 2.124 91.0008 1.692 89.4168 1.62C85.8528 1.512 82.5048 3.132 82.5048 7.128V23.976L81.4968 26.532C81.4608 26.64 81.4608 26.748 81.5328 26.856C81.6048 26.964 81.7128 27 81.8568 27H90.0648C90.1728 27 90.2808 26.964 90.3528 26.856C90.4248 26.748 90.4248 26.64 90.3888 26.532L89.3808 23.976V12.276L93.8808 14.22C93.9888 14.256 94.0968 14.256 94.2048 14.184C94.3128 14.112 94.3848 14.004 94.3848 13.896V9.396C94.3848 9.18 94.2048 9.036 94.0248 9.036H89.1648C88.4088 8.316 87.5088 7.38 87.0408 6.444ZM106.603 27.432C112.399 27.432 117.079 24.084 117.079 18C117.079 11.916 112.363 8.604 106.603 8.604C100.879 8.604 96.2351 11.952 96.2351 18C96.2351 24.084 100.843 27.432 106.603 27.432ZM107.863 12.492C108.979 13.788 109.735 15.552 110.131 17.208C110.491 18.864 110.635 20.772 110.203 22.428C109.951 23.4 109.375 24.66 108.259 24.912C107.143 25.164 106.099 24.336 105.415 23.544C104.299 22.248 103.543 20.484 103.147 18.828C102.787 17.208 102.643 15.264 103.075 13.608C103.327 12.636 103.903 11.376 105.019 11.124C106.135 10.872 107.179 11.736 107.863 12.492ZM127.019 2.232C127.019 2.124 126.983 2.016 126.911 1.944C126.803 1.872 126.695 1.872 126.587 1.872L120.431 3.564L119.171 3.96C119.063 3.996 118.955 4.068 118.919 4.176C118.883 4.284 118.883 4.392 118.955 4.5L120.179 6.516V23.976L119.171 26.532C119.099 26.64 119.135 26.748 119.207 26.856C119.279 26.964 119.387 27 119.495 27H127.703C127.847 27 127.955 26.964 128.027 26.856C128.099 26.748 128.099 26.64 128.063 26.532L127.019 23.976V2.232ZM139.015 23.976V9.396C139.015 9.288 138.979 9.18 138.907 9.108C138.799 9.036 138.691 9 138.583 9.036L132.427 10.692C132.427 10.728 132.427 10.728 132.427 10.728L131.167 11.124C131.059 11.16 130.951 11.232 130.915 11.34C130.879 11.448 130.879 11.556 130.951 11.664L132.175 13.68V23.976L131.167 26.532C131.095 26.64 131.131 26.748 131.203 26.856C131.275 26.964 131.383 27 131.491 27H139.699C139.843 27 139.951 26.964 140.023 26.856C140.095 26.748 140.095 26.64 140.059 26.532L139.015 23.976ZM131.779 4.248C131.779 6.264 133.435 7.884 135.451 7.884H135.487H135.523C137.539 7.92 139.195 6.264 139.195 4.248C139.195 2.196 137.539 0.575999 135.523 0.575999H135.487H135.451C133.435 0.575999 131.779 2.196 131.779 4.248ZM153.279 27.432C159.075 27.432 163.755 24.084 163.755 18C163.755 11.916 159.039 8.604 153.279 8.604C147.555 8.604 142.911 11.952 142.911 18C142.911 24.084 147.519 27.432 153.279 27.432ZM154.539 12.492C155.655 13.788 156.411 15.552 156.807 17.208C157.167 18.864 157.311 20.772 156.879 22.428C156.627 23.4 156.051 24.66 154.935 24.912C153.819 25.164 152.775 24.336 152.091 23.544C150.975 22.248 150.219 20.484 149.823 18.828C149.463 17.208 149.319 15.264 149.751 13.608C150.003 12.636 150.579 11.376 151.695 11.124C152.811 10.872 153.855 11.736 154.539 12.492Z" fill="#EEF6FF"/>
</svg>
