<svg width="300" height="50" viewBox="0 0 300 50" fill="none" xmlns="http://www.w3.org/2000/svg">
<rect x="0.208069" width="50" height="50" rx="25" fill="#EEF6FF"/>
<path d="M75.2441 28.304H79.9961C94.7921 28.304 94.7921 9.836 79.9961 9.836H67.7201C67.5761 9.836 67.4681 9.908 67.3961 10.016C67.3241 10.124 67.3241 10.232 67.3601 10.376L68.3681 12.896V31.976L67.3601 34.496C67.3241 34.604 67.3241 34.748 67.3961 34.856C67.4681 34.964 67.5761 35 67.7201 35H75.9281C76.0361 35 76.1441 34.964 76.2161 34.856C76.2881 34.748 76.3241 34.604 76.2881 34.496L75.2441 31.976V28.304ZM75.2441 14.048H78.3041C85.9361 14.048 85.9361 24.128 78.3041 24.128H75.2441V14.048ZM103.787 35.432C109.583 35.432 114.263 32.084 114.263 26C114.263 19.916 109.547 16.604 103.787 16.604C98.0627 16.604 93.4187 19.952 93.4187 26C93.4187 32.084 98.0267 35.432 103.787 35.432ZM105.047 20.492C106.163 21.788 106.919 23.552 107.315 25.208C107.675 26.864 107.819 28.772 107.387 30.428C107.135 31.4 106.559 32.66 105.443 32.912C104.327 33.164 103.283 32.336 102.599 31.544C101.483 30.248 100.727 28.484 100.331 26.828C99.9707 25.208 99.8267 23.264 100.259 21.608C100.511 20.636 101.087 19.376 102.203 19.124C103.319 18.872 104.363 19.736 105.047 20.492ZM116.846 34.532C116.774 34.64 116.81 34.748 116.882 34.856C116.954 34.964 117.062 35 117.17 35H125.378C125.522 35 125.63 34.964 125.702 34.856C125.774 34.748 125.774 34.64 125.738 34.532L124.694 31.976V23.696C124.694 23.588 124.73 23.48 124.73 23.372C124.982 22.436 126.17 21.896 127.034 21.716C128.33 21.5 129.662 21.86 130.562 22.832C130.67 22.94 130.85 22.976 130.994 22.904C131.102 22.868 131.21 22.724 131.21 22.58V17.108C131.21 16.964 131.102 16.82 130.958 16.784C129.842 16.424 128.654 16.568 127.574 16.964C126.602 17.324 125.522 17.936 124.694 18.692V17.396C124.694 17.288 124.658 17.18 124.586 17.108C124.478 17.036 124.37 17 124.262 17.036L118.106 18.692C118.106 18.728 118.106 18.728 118.106 18.728L116.846 19.124C116.738 19.16 116.63 19.232 116.594 19.34C116.558 19.448 116.558 19.556 116.63 19.664L117.854 21.68V31.976L116.846 34.532ZM134.28 30.284C134.28 33.776 136.188 35.54 139.644 35.54C142.2 35.54 144.072 35.108 145.98 33.632C146.088 33.56 146.124 33.452 146.124 33.344V30.644C146.124 30.5 146.052 30.392 145.908 30.32C145.8 30.248 145.656 30.284 145.548 30.392C143.568 32.048 141.12 32.12 141.12 29.024V20.276L145.62 22.22C145.728 22.256 145.872 22.256 145.98 22.184C146.088 22.112 146.124 22.004 146.124 21.896V17.396C146.124 17.18 145.98 17.036 145.764 17.036H141.12V10.232C141.12 10.124 141.084 10.016 141.012 9.944C140.904 9.872 140.796 9.872 140.688 9.872L134.532 11.564L133.272 11.96C133.164 11.996 133.056 12.068 133.02 12.176C132.984 12.284 132.984 12.392 133.056 12.5L134.28 14.516V30.284ZM154.041 14.444C153.897 14.12 153.609 13.508 153.861 13.184C154.257 12.644 155.661 13.04 156.129 13.184C157.785 13.76 159.477 14.912 160.773 16.064C160.881 16.172 161.025 16.172 161.169 16.136C161.313 16.064 161.385 15.956 161.385 15.812V11.42C161.385 11.276 161.349 11.204 161.241 11.132C159.981 10.124 158.001 9.692 156.417 9.62C152.853 9.512 149.505 11.132 149.505 15.128V31.976L148.497 34.532C148.461 34.64 148.461 34.748 148.533 34.856C148.605 34.964 148.713 35 148.857 35H157.065C157.173 35 157.281 34.964 157.353 34.856C157.425 34.748 157.425 34.64 157.389 34.532L156.381 31.976V20.276L160.881 22.22C160.989 22.256 161.097 22.256 161.205 22.184C161.313 22.112 161.385 22.004 161.385 21.896V17.396C161.385 17.18 161.205 17.036 161.025 17.036H156.165C155.409 16.316 154.509 15.38 154.041 14.444ZM173.603 35.432C179.399 35.432 184.079 32.084 184.079 26C184.079 19.916 179.363 16.604 173.603 16.604C167.879 16.604 163.235 19.952 163.235 26C163.235 32.084 167.843 35.432 173.603 35.432ZM174.863 20.492C175.979 21.788 176.735 23.552 177.131 25.208C177.491 26.864 177.635 28.772 177.203 30.428C176.951 31.4 176.375 32.66 175.259 32.912C174.143 33.164 173.099 32.336 172.415 31.544C171.299 30.248 170.543 28.484 170.147 26.828C169.787 25.208 169.643 23.264 170.075 21.608C170.327 20.636 170.903 19.376 172.019 19.124C173.135 18.872 174.179 19.736 174.863 20.492ZM194.019 10.232C194.019 10.124 193.983 10.016 193.911 9.944C193.803 9.872 193.695 9.872 193.587 9.872L187.431 11.564L186.171 11.96C186.063 11.996 185.955 12.068 185.919 12.176C185.883 12.284 185.883 12.392 185.955 12.5L187.179 14.516V31.976L186.171 34.532C186.099 34.64 186.135 34.748 186.207 34.856C186.279 34.964 186.387 35 186.495 35H194.703C194.847 35 194.955 34.964 195.027 34.856C195.099 34.748 195.099 34.64 195.063 34.532L194.019 31.976V10.232ZM206.015 31.976V17.396C206.015 17.288 205.979 17.18 205.907 17.108C205.799 17.036 205.691 17 205.583 17.036L199.427 18.692C199.427 18.728 199.427 18.728 199.427 18.728L198.167 19.124C198.059 19.16 197.951 19.232 197.915 19.34C197.879 19.448 197.879 19.556 197.951 19.664L199.175 21.68V31.976L198.167 34.532C198.095 34.64 198.131 34.748 198.203 34.856C198.275 34.964 198.383 35 198.491 35H206.699C206.843 35 206.951 34.964 207.023 34.856C207.095 34.748 207.095 34.64 207.059 34.532L206.015 31.976ZM198.779 12.248C198.779 14.264 200.435 15.884 202.451 15.884H202.487H202.523C204.539 15.92 206.195 14.264 206.195 12.248C206.195 10.196 204.539 8.576 202.523 8.576H202.487H202.451C200.435 8.576 198.779 10.196 198.779 12.248ZM220.279 35.432C226.075 35.432 230.755 32.084 230.755 26C230.755 19.916 226.039 16.604 220.279 16.604C214.555 16.604 209.911 19.952 209.911 26C209.911 32.084 214.519 35.432 220.279 35.432ZM221.539 20.492C222.655 21.788 223.411 23.552 223.807 25.208C224.167 26.864 224.311 28.772 223.879 30.428C223.627 31.4 223.051 32.66 221.935 32.912C220.819 33.164 219.775 32.336 219.091 31.544C217.975 30.248 217.219 28.484 216.823 26.828C216.463 25.208 216.319 23.264 216.751 21.608C217.003 20.636 217.579 19.376 218.695 19.124C219.811 18.872 220.855 19.736 221.539 20.492Z" fill="#EEF6FF"/>
</svg>
